<svg width="20" height="20" viewBox="0 0 20 20" fill="none" xmlns="http://www.w3.org/2000/svg">
<path d="M11.667 1.85109C11.1285 1.7419 10.5711 1.68457 10.0003 1.68457C5.39795 1.68457 1.66699 5.41144 1.66699 10.0088C1.66699 14.606 5.39795 18.3329 10.0003 18.3329C14.6027 18.3329 18.3337 14.606 18.3337 10.0088C18.3337 9.43868 18.2762 8.88185 18.167 8.34393" stroke="#525866" stroke-width="1.25" stroke-linecap="round"/>
<path d="M9.99967 7.5121C9.07917 7.5121 8.33301 8.07114 8.33301 8.7607C8.33301 9.45029 9.07917 10.0094 9.99967 10.0094C10.9202 10.0094 11.6663 10.5685 11.6663 11.258C11.6663 11.9475 10.9202 12.5066 9.99967 12.5066M9.99967 7.5121C10.7253 7.5121 11.3427 7.85956 11.5715 8.34454M9.99967 7.5121V6.67969M9.99967 12.5066C9.27401 12.5066 8.65667 12.1592 8.42784 11.6742M9.99967 12.5066V13.339" stroke="#525866" stroke-width="1.25" stroke-linecap="round"/>
<path d="M18.3288 1.66699L14.8489 5.14501M14.1621 2.10132L14.2606 4.67473C14.2606 5.28127 14.6232 5.65918 15.2836 5.70684L17.887 5.82908" stroke="#525866" stroke-width="1.25" stroke-linecap="round" stroke-linejoin="round"/>
</svg>
