<svg width="20" height="20" viewBox="0 0 20 20" fill="none" xmlns="http://www.w3.org/2000/svg">
<path d="M12.6097 2.08366C11.7888 1.81328 10.9117 1.66699 10.0003 1.66699C5.39795 1.66699 1.66699 5.39795 1.66699 10.0003C1.66699 14.6027 5.39795 18.3337 10.0003 18.3337C14.6027 18.3337 18.3337 14.6027 18.3337 10.0003C18.3337 9.12933 18.2 8.28953 17.9522 7.50033" stroke="#525866" stroke-width="1.25" stroke-linecap="round"/>
<path d="M14.1663 9.99967C14.1663 12.3008 12.3008 14.1663 9.99967 14.1663C7.69849 14.1663 5.83301 12.3008 5.83301 9.99967C5.83301 7.69849 7.69849 5.83301 9.99967 5.83301" stroke="#525866" stroke-width="1.25" stroke-linecap="round" stroke-linejoin="round"/>
<path d="M16.25 3.75033L10 10.0003M16.25 3.75033V1.66699M16.25 3.75033H18.3333" stroke="#525866" stroke-width="1.25" stroke-linecap="round"/>
</svg>
