<svg width="25" height="25" viewBox="0 0 25 26" fill="none" xmlns="http://www.w3.org/2000/svg">
  <path d="M20.3125 17.1663V13.0058C20.3125 11.4575 20.3125 10.6833 20.0462 9.97471C19.78 9.26613 19.2702 8.68351 18.2506 7.51826L16.6667 5.70801H8.33333L6.74936 7.51826C5.72977 8.68351 5.21998 9.26613 4.95374 9.97471C4.6875 10.6833 4.6875 11.4575 4.6875 13.0058V17.1663C4.6875 20.1126 4.6875 21.5857 5.60279 22.501C6.51808 23.4163 7.99122 23.4163 10.9375 23.4163H14.0625C17.0087 23.4163 18.4819 23.4163 19.3972 22.501C20.3125 21.5857 20.3125 20.1126 20.3125 17.1663Z" stroke="#A0D234" stroke-width="1.5625" stroke-linecap="round" stroke-linejoin="round"/>
  <path d="M9.89551 16.8362C9.89551 18.1169 11.8267 19.1668 13.6794 18.5781C15.5322 17.9894 15.2598 16.2547 14.6312 15.5734C14.0027 14.8923 13.0778 15.0064 12.0204 14.9529C9.64418 14.8324 9.47644 12.554 11.4004 11.6527C12.8119 10.9913 14.6225 11.8395 14.831 12.9997M12.4695 10.3955V11.4139M12.4695 18.9584V19.7705" stroke="#A0D234" stroke-width="1.5625" stroke-linecap="round" stroke-linejoin="round"/>
  <path d="M7.8125 2.58301H17.1875C17.6728 2.58301 17.9155 2.58301 18.107 2.6623C18.3622 2.76802 18.565 2.97081 18.6707 3.22605C18.75 3.41748 18.75 3.66015 18.75 4.14551C18.75 4.63086 18.75 4.87354 18.6707 5.06497C18.565 5.32021 18.3622 5.523 18.107 5.62872C17.9155 5.70801 17.6728 5.70801 17.1875 5.70801H7.8125C7.32715 5.70801 7.08447 5.70801 6.89304 5.62872C6.6378 5.523 6.43501 5.32021 6.32929 5.06497C6.25 4.87354 6.25 4.63086 6.25 4.14551C6.25 3.66015 6.25 3.41748 6.32929 3.22605C6.43501 2.97081 6.6378 2.76802 6.89304 2.6623C7.08447 2.58301 7.32715 2.58301 7.8125 2.58301Z" stroke="#A0D234" stroke-width="1.5625" stroke-linecap="round" stroke-linejoin="round"/>
</svg>